# xmcd CD database file
#
# Track frame offsets:
#	150
#	15218
#	33644
#	53879
#	73091
#	92325
#	116934
#	133521
#	156449
#	173121
#	191812
#	213302
#	232793
#	251076
#	273078
#
# Disc length: 3860 seconds
#
# Revision: 0
# Processed by: cddbd v1.5PL3 Copyright (c) Steve Scherf et al.
# Submitted via: CDex 1.50beta10
#
DISCID=cc0f120f
DTITLE=Byther Smith - Hold That Train
DYEAR=2004
DGENRE=Blues
TTITLE0=This Little Voice
TTITLE1=300 Pounds Of Joy
TTITLE2=So Unhappy
TTITLE3=Tell Me How You Like It
TTITLE4=What My Mamma Told Me
TTITLE5=Hold That Train Conductor
TTITLE6=Mississippi Kid
TTITLE7=Come On In This House
TTITLE8=You Ought To Be Ashamed
TTITLE9=Walked All Night Long
TTITLE10=So Mean To Me
TTITLE11=Thrill Is Gone
TTITLE12=Close To You
TTITLE13=I Don't Like To Travel
TTITLE14=Killing Floor
EXTD=YEAR: 2004
EXTT0=
EXTT1=
EXTT2=
EXTT3=
EXTT4=
EXTT5=
EXTT6=
EXTT7=
EXTT8=
EXTT9=
EXTT10=
EXTT11=
EXTT12=
EXTT13=
EXTT14=
PLAYORDER=
